<?xml version="1.0" encoding="UTF-8"?><svg id="Layer_2" xmlns="http://www.w3.org/2000/svg" viewBox="0 0 198.94 200"><defs><style>.cls-1{fill:#fff;}</style></defs><g id="Layer_1-2"><path class="cls-1" d="m0,99.49C0,72.14,0,44.78,0,17.43.01,6.88,6.62.02,17.06.02,71.71-.02,126.36,0,181.01.04c9.68,0,16.79,6.57,17.53,16.16.31,4.09.2,8.22.21,12.33.02,48.17.01,96.34.03,144.52,0,3.15.26,6.3.15,9.44-.37,10.68-6.3,16.69-16.95,17.28-2.77.15-5.55.17-8.32.17-50.55.03-101.09.05-151.64.06-2.05,0-4.11-.03-6.15-.21C5.94,198.94.04,192.6.02,182.64c-.04-27.72-.01-55.43-.01-83.15Zm78.64-23.13v95.63h28.69c0-1.54,0-2.84,0-4.15,0-14.4-.03-28.8,0-43.2,0-6.14,1.08-12.03,4.34-17.36,4.1-6.72,10.69-7.22,17.49-6.8,6.34.39,8.91,5.11,9.92,10.38,1.09,5.65,1.52,11.49,1.65,17.26.3,13.55.29,27.1.28,40.65,0,2.67.84,3.57,3.55,3.51,7.23-.17,14.47-.15,21.71-.01,2.54.05,3.3-.81,3.3-3.34-.02-15.49.29-30.98.1-46.47-.09-6.99-.77-14.02-1.75-20.95-1.36-9.65-5.43-17.94-14.6-22.45-13.72-6.74-36.07-5.46-45.99,8.25-.45.62-1.19,1.02-1.8,1.53,0-3.46.13-6.68-.08-9.89-.06-.9-1.11-2.48-1.73-2.49-8.41-.17-16.82-.11-25.07-.11Zm-49.68,94.23c9.24,0,17.9-.02,26.56.02,2.26.01,2.43-1.34,2.43-3.1-.02-29.88-.03-59.77.02-89.65,0-2.22-.73-2.91-2.94-2.88-7.23.12-14.47.2-21.7-.04-3.48-.12-4.45.99-4.43,4.48.13,29.04.08,58.07.08,87.11v4.07ZM61.69,44.89c.19-9.84-8.35-19.04-17.9-19.29-9.22-.24-18.36,8.79-18.53,18.29-.17,9.68,8.45,19.15,17.55,19.28,9.74.14,18.7-8.53,18.89-18.28Z"/></g></svg>