<?xml version="1.0" encoding="UTF-8"?><svg id="Layer_2" xmlns="http://www.w3.org/2000/svg" viewBox="0 0 1147.38 1147.33"><defs><style>.cls-1{fill:#2c40a4;}.cls-2{fill:#f5fbfd;}.cls-3{fill:#f40000;}</style></defs><g id="Layer_1-2"><path class="cls-2" d="m.15,768.16v-385.14h1146.61v382.15c-351.92,0-703.84,0-1055.77,0-30.31,0-60.66-.88-90.84,2.98Z"/><path class="cls-1" d="m.15,768.16c30.19-3.86,60.53-2.98,90.84-2.98,351.92,0,703.84,0,1055.77,0v373.2c-.61,3.76-3.87,4.21-6.6,4.9-9.9,2.52-19.95,4.05-30.21,4.04-86.82-.01-173.65,0-260.47,0-283.11,0-566.22,0-849.33,0v-379.17Z"/><path class="cls-3" d="m1146.75,383.02H.15C.15,257.88.19,132.73,0,7.59,0,1.96,1.24.73,6.86.73c373.99.16,747.98.14,1121.97.14,7.98,4.82,14.01,11.08,15.43,20.8.2,1.38.44,3.04,2.48,3.09v358.27Z"/><path class="cls-1" d="m1146.75,24.75c-2.04-.05-2.28-1.71-2.48-3.09-1.42-9.72-7.45-15.97-15.43-20.8,5.87,0,14.42-2.31,16.91.59,3.01,3.5.91,11.42,1,17.43.03,1.95,0,3.91,0,5.87Z"/></g></svg>