<svg width="45" height="29" viewBox="0 0 45 29" fill="none" xmlns="http://www.w3.org/2000/svg">
<path d="M18.6412 22.9992L19.2174 20.4362H18.7276L18.3243 22.3157L17.748 20.4362H17.3735L16.7972 22.3157L16.3939 20.4362H15.9041L16.5091 22.9992H17.0277L17.5463 21.2051L18.0938 22.9992H18.6412ZM20.4275 19.8382V19.2971H19.8225V19.8382H20.4275ZM20.3987 22.9992V20.4362H19.9089V22.9992H20.3987ZM23.2799 22.9992V21.2336C23.2799 20.7779 23.1071 20.3793 22.5884 20.3793C22.1851 20.3793 21.897 20.6356 21.7529 20.9773V20.4362H21.2631V22.9992H21.7529V21.917C21.7529 21.5468 21.9546 20.8634 22.4444 20.8634C22.7325 20.8634 22.7901 21.0342 22.7901 21.2905C22.7901 21.4044 22.7901 21.5183 22.7901 21.6038V22.9992H23.2799ZM26.1323 22.9992V21.2336C26.1323 20.7779 25.9594 20.3793 25.4408 20.3793C25.0375 20.3793 24.7493 20.6356 24.6053 20.9773V20.4362H24.1155V22.9992H24.6053V21.917C24.6053 21.5468 24.807 20.8634 25.2968 20.8634C25.5849 20.8634 25.6425 21.0342 25.6425 21.2905C25.6425 21.4044 25.6425 21.5183 25.6425 21.6038V22.9992H26.1323ZM28.6966 22.6005C28.5237 22.6574 28.3797 22.6859 28.2068 22.6859C27.5441 22.6859 27.256 22.1164 27.256 21.5183H28.7542V21.4044C28.7542 20.8064 28.4373 20.3793 27.8034 20.3793C27.0543 20.3793 26.7374 20.8918 26.7374 21.6038C26.7374 22.4581 27.1119 23.0846 28.0339 23.0846C28.2644 23.0846 28.4661 23.0561 28.6966 22.9992V22.6005ZM27.2848 21.2051C27.2848 21.1481 27.3136 21.0912 27.3136 21.0342C27.4001 20.8349 27.5729 20.7495 27.8034 20.7495C28.0627 20.7495 28.2932 20.9203 28.2932 21.2051H27.2848ZM29.8779 22.9992V21.917C29.8779 21.3475 30.0508 20.8918 30.6846 20.8918V20.3793C30.3101 20.3793 29.9931 20.6071 29.8779 20.9488V20.4362H29.3881V22.9992H29.8779ZM34.9488 22.9992V22.629H33.3641C34.0268 22.0594 34.92 21.4044 34.92 20.4647C34.92 19.8382 34.4302 19.5249 33.8539 19.5249C33.2777 19.5249 32.7879 19.7528 32.7303 20.3793H33.3353C33.3353 20.066 33.5658 19.8951 33.8539 19.8951C34.1997 19.8951 34.3726 20.0945 34.3726 20.4077C34.3726 21.1197 33.2489 22.1733 32.7015 22.6005V22.9992H34.9488ZM36.8216 23.0561C37.8588 23.0561 38.0893 22.1448 38.0893 21.2905C38.0893 20.4362 37.8588 19.5249 36.8216 19.5249C35.7844 19.5249 35.5539 20.4647 35.5539 21.2905C35.5539 22.1448 35.7844 23.0561 36.8216 23.0561ZM36.8216 22.6859C36.1301 22.6859 36.1013 21.7746 36.1013 21.2905C36.1013 20.8064 36.1301 19.8951 36.8216 19.8951C37.5131 19.8951 37.5419 20.8064 37.5419 21.2905C37.5419 21.7746 37.5131 22.6859 36.8216 22.6859ZM40.7112 22.9992V22.629H39.1265C39.7892 22.0594 40.6824 21.4044 40.6824 20.4647C40.6824 19.8382 40.1926 19.5249 39.6164 19.5249C39.0401 19.5249 38.5503 19.7528 38.4927 20.3793H39.0977C39.0977 20.066 39.3282 19.8951 39.6164 19.8951C39.9621 19.8951 40.135 20.0945 40.135 20.4077C40.135 21.1197 39.0113 22.1733 38.4639 22.6005V22.9992H40.7112ZM43.0162 21.2051C43.4195 21.1197 43.5636 20.7779 43.5636 20.4077C43.5636 19.8382 43.0738 19.5534 42.5264 19.5534C42.0366 19.5534 41.4315 19.7528 41.4027 20.3508H42.0078C42.0366 20.066 42.2094 19.9521 42.4976 19.9521C42.8721 19.9521 42.9874 20.1799 42.9874 20.5216C42.9874 20.8634 42.7569 21.0912 42.4111 21.0912H42.2671V21.4614H42.4111C42.8433 21.4614 43.045 21.6892 43.045 22.1164C43.045 22.5435 42.8721 22.7429 42.4399 22.7429C42.1806 22.7429 41.9213 22.6005 41.9213 22.3157H41.3163C41.3451 22.9137 41.9501 23.1131 42.4687 23.1131C43.1602 23.1131 43.5924 22.7998 43.5924 22.0879C43.65 21.6323 43.4484 21.319 43.0162 21.2051Z" fill="black"/>
<path d="M9.01832 22.9983V19.2678H8.52851V20.7771C8.41326 20.4923 8.12514 20.35 7.83702 20.35C7.08791 20.35 6.91504 21.1473 6.91504 21.7453C6.91504 22.3434 7.08791 23.0553 7.80821 23.0553C8.09633 23.0553 8.41326 22.8844 8.52851 22.5997V22.9983H9.01832ZM7.95227 22.6851C7.46247 22.6851 7.43366 22.0586 7.43366 21.7169C7.43366 21.3751 7.49128 20.7486 7.95227 20.7486C8.41326 20.7486 8.52851 21.3467 8.52851 21.7169C8.4997 22.0586 8.38445 22.6851 7.95227 22.6851ZM10.7758 23.0553C11.6114 23.0553 11.9283 22.4573 11.9283 21.7169C11.9283 20.9765 11.6114 20.3784 10.7758 20.3784C9.9403 20.3784 9.62337 20.9765 9.62337 21.7169C9.62337 22.4858 9.9403 23.0553 10.7758 23.0553ZM10.7758 22.6851C10.2284 22.6851 10.1708 22.1155 10.1708 21.7169C10.1708 21.2897 10.2284 20.7486 10.7758 20.7486C11.3233 20.7486 11.3809 21.3182 11.3809 21.7169C11.3809 22.1155 11.3233 22.6851 10.7758 22.6851ZM13.9452 22.6566C13.8587 22.6851 13.7723 22.6851 13.6859 22.6851C13.3401 22.6851 13.2825 22.4573 13.2825 22.1725V20.8056H14.0028V20.4354H13.2825V19.5241L12.7927 19.8374V20.4354H12.3029V20.8056H12.7639V22.4288C12.7639 22.9129 13.0808 23.0553 13.5418 23.0553C13.6859 23.0553 13.8011 23.0553 13.9164 23.0268V22.6566H13.9452Z" fill="#E30613"/>
<path d="M0.57623 22.9983V21.9162C0.57623 21.3467 0.749102 20.891 1.38297 20.891V20.3784C1.00841 20.3784 0.691478 20.6063 0.57623 20.948V20.4354H0.0864258V22.9983H0.57623ZM3.65912 22.5997C3.48624 22.6566 3.34218 22.6851 3.16931 22.6851C2.50664 22.6851 2.21852 22.1155 2.21852 21.5175H3.71674V21.4036C3.71674 20.8056 3.39981 20.3784 2.76594 20.3784C2.01683 20.3784 1.6999 20.891 1.6999 21.603C1.6999 22.4573 2.07446 23.0838 2.99644 23.0838C3.22694 23.0838 3.42862 23.0553 3.65912 22.9983V22.5997ZM2.24733 21.2043C2.24733 21.1473 2.27614 21.0904 2.27614 21.0334C2.36258 20.8341 2.53545 20.7486 2.76594 20.7486C3.05406 20.7486 3.25575 20.9195 3.25575 21.2043H2.24733ZM6.28101 22.9983V19.2678H5.79121V20.7771C5.67596 20.4923 5.38784 20.35 5.09972 20.35C4.3506 20.35 4.17773 21.1473 4.17773 21.7453C4.17773 22.3434 4.3506 23.0553 5.07091 23.0553C5.35903 23.0553 5.67596 22.8844 5.79121 22.5997V22.9983H6.28101ZM5.21497 22.6851C4.72516 22.6851 4.69635 22.0586 4.69635 21.7169C4.69635 21.3751 4.75397 20.7486 5.21497 20.7486C5.67596 20.7486 5.79121 21.3467 5.79121 21.7169C5.76239 22.0586 5.64715 22.6851 5.21497 22.6851Z" fill="black"/>
<path d="M12.994 9.78626C13.0228 10.0426 12.9364 10.2704 12.7635 10.6121C12.6195 10.8969 12.389 11.0962 12.1585 11.381C11.928 11.6658 11.6399 11.9221 11.3229 12.1784C11.006 12.4062 10.7179 12.6625 10.3433 12.8049C9.96876 12.9757 9.65183 13.1466 9.3349 13.1751C9.01796 13.2035 8.75866 13.2035 8.52816 13.1181C8.29766 13.0327 8.12479 12.9188 8.00954 12.7479C7.89429 12.577 7.83667 12.3492 7.83667 12.0929C7.83667 11.8366 7.92311 11.5803 8.06717 11.2956C8.21123 11.0393 8.3841 10.7545 8.61459 10.4982C8.84509 10.2419 9.1044 9.98561 9.39252 9.75779C9.68064 9.52997 9.99757 9.33063 10.3433 9.18824C10.6891 9.01738 11.006 8.93195 11.2941 8.87499C11.5822 8.81804 11.8704 8.81804 12.1008 8.87499C12.3313 8.93195 12.5618 9.01738 12.7059 9.15976C12.85 9.33063 12.9652 9.52997 12.994 9.78626ZM11.8415 10.783C11.8415 10.6691 11.7839 10.5552 11.7263 10.4982C11.6687 10.4128 11.5534 10.3558 11.4382 10.3273C11.3229 10.2989 11.1789 10.2989 11.0348 10.3273C10.8907 10.3558 10.7179 10.3843 10.5738 10.4697C10.4009 10.5552 10.2569 10.6406 10.1128 10.7545C9.96876 10.8684 9.85351 10.9823 9.73826 11.1247C9.62301 11.2386 9.53658 11.381 9.47896 11.5234C9.42133 11.6658 9.39252 11.7797 9.39252 11.9221C9.39252 12.036 9.42133 12.1499 9.47896 12.2353C9.53658 12.3207 9.62301 12.3777 9.73826 12.4062C9.85351 12.4347 9.96876 12.4347 10.1416 12.4347C10.2857 12.4062 10.4586 12.3777 10.6314 12.2923C10.8043 12.2068 10.9772 12.1214 11.1212 12.0075C11.2653 11.8936 11.4094 11.7797 11.5246 11.6373C11.6399 11.4949 11.7263 11.3525 11.7839 11.2386C11.8127 11.0393 11.8415 10.8969 11.8415 10.783Z" fill="url(#paint0_radial_955_247)"/>
<path d="M3.65908 0.986801C2.70828 1.55635 2.16085 1.8696 1.46936 2.72391C1.18124 3.06564 1.03718 3.26498 0.835497 3.63519C0.749061 3.83453 0.633813 4.14778 0.633813 4.14778L0.576189 4.51798L0.460941 5.0021L0.432129 5.42926V5.57164C0.432129 5.54316 0.432129 5.48621 0.432129 5.45773C0.432129 5.42926 0.432129 5.3723 0.460941 5.34382C0.460941 5.31535 0.460941 5.25839 0.489753 5.22991C0.489753 5.20144 0.518565 5.14448 0.518565 5.11601C0.633813 4.68885 0.835497 4.23321 1.12362 3.72062C1.46936 3.15107 1.72867 2.8663 2.18966 2.43914C2.65065 1.98351 2.96759 1.67026 3.51502 1.27157C3.86076 1.01528 4.69631 0.502688 5.18611 0.445734C5.3878 0.417256 4.72512 0.474211 4.49462 0.58812C4.14888 0.702029 3.9472 0.815938 3.65908 0.986801Z" fill="url(#paint1_radial_955_247)"/>
<path d="M10.5165 1.38439L10.1708 1.01418L9.7962 0.672456L9.59451 0.53007L9.16233 0.359206C8.93184 0.273775 8.64372 0.188343 8.32678 0.131388C8.03866 0.102911 7.54886 0.0174793 7.1743 0.102911C6.79975 0.188343 6.56925 0.273775 6.13707 0.444638C5.7337 0.615502 5.30152 0.84332 4.84053 1.09962C4.23548 1.46982 3.63042 1.92546 3.08299 2.38109C2.53557 2.86521 2.04576 3.34932 1.61358 3.89039C1.1814 4.40298 0.806844 4.94405 0.518723 5.48512C0.230603 6.02618 0.115355 6.53877 0.0289186 7.05137C0.000106598 7.1368 0.0289186 7.25071 0.0289186 7.33614C0.0289186 7.42157 0.115355 7.99112 0.201791 8.3898C0.230603 8.56066 0.259415 8.67457 0.317039 8.84543C0.374663 9.04477 0.518723 9.32955 0.518723 9.32955L0.605159 9.44345L0.778032 9.69975C0.720407 9.61432 0.662783 9.50041 0.633971 9.3865C0.605159 9.27259 0.576347 9.15868 0.547535 9.04477C0.518723 8.93086 0.518723 8.78848 0.518723 8.64609C0.518723 8.50371 0.518723 8.36132 0.547535 8.21893C0.633971 7.70634 0.835656 7.1368 1.12378 6.56725C1.4119 5.99771 1.81526 5.42816 2.27626 4.88709C2.73725 4.34602 3.25587 3.80496 3.83211 3.32084C4.40835 2.83673 5.0134 2.38109 5.67608 1.98241C6.19469 1.66916 6.71331 1.41287 7.20311 1.242C7.69292 1.04266 8.15391 0.928752 8.58609 0.871797C9.01827 0.814843 9.39283 0.84332 9.73857 0.900275C10.0267 0.985706 10.3148 1.15657 10.5165 1.38439Z" fill="url(#paint2_radial_955_247)"/>
<path d="M12.8498 4.20537L12.2447 2.66759L12.1007 2.32587C11.899 1.98414 11.5532 1.75632 11.1787 1.61393C10.8041 1.47155 10.1126 1.47155 9.62283 1.5285C9.10422 1.58546 8.55679 1.72784 7.98055 1.95566C7.40431 2.18348 6.79926 2.49673 6.1942 2.89541C5.50271 3.32257 4.86885 3.83516 4.29261 4.37623C3.71637 4.9173 3.19775 5.51532 2.73676 6.11334C2.27577 6.71137 1.90121 7.33787 1.6419 7.93589C1.35378 8.56239 1.20972 9.16041 1.1521 9.70148C1.1521 9.90082 1.1521 10.1002 1.18091 10.2995C1.20972 10.4704 1.26735 10.6412 1.32497 10.8121C1.3826 10.9545 1.46903 11.0969 1.58428 11.2393C1.69953 11.3532 1.81478 11.4671 1.93002 11.5525L2.39102 11.8373L2.8232 12.0651L3.313 12.2929L3.74518 12.4353C3.5435 12.3783 3.34181 12.2644 3.16894 12.1505C2.99607 12.0366 2.88082 11.8942 2.76557 11.7234C2.65032 11.5525 2.56389 11.3532 2.53508 11.1538C2.47745 10.9545 2.44864 10.6982 2.47745 10.4419C2.50626 9.9293 2.65032 9.35975 2.88082 8.76173C3.11132 8.19218 3.45706 7.62264 3.88924 7.05309C4.29261 6.48355 4.78241 5.94248 5.32984 5.42989C5.87727 4.9173 6.48232 4.46166 7.11619 4.0345C7.75005 3.63582 8.38392 3.32257 8.96016 3.12323C9.56521 2.92389 10.3431 2.7815 10.8329 2.7815C11.3516 2.7815 11.7837 2.89541 12.1295 3.12323C12.4752 3.35105 12.5617 3.74973 12.6769 4.20537H12.8498Z" fill="url(#paint3_radial_955_247)"/>
<path d="M13.3114 7.39413C13.225 7.02393 13.0521 6.73915 12.764 6.53981C12.5047 6.34047 12.1589 6.25504 11.7556 6.22656C11.381 6.19809 10.92 6.25504 10.459 6.4259C9.99804 6.56829 9.50824 6.79611 8.98962 7.08088C8.49982 7.39413 8.01001 7.73586 7.60665 8.13454C7.20328 8.53322 6.82872 8.9319 6.51179 9.35906C6.19486 9.78622 5.96436 10.2419 5.79149 10.669C5.61862 11.0962 5.53218 11.5233 5.56099 11.922C5.5898 12.2637 5.67624 12.5485 5.84911 12.7763C6.02199 13.0042 6.25248 13.175 6.5406 13.2889C6.82872 13.4028 7.20328 13.4313 7.57783 13.4028C7.9812 13.3744 8.41338 13.2604 8.90319 13.0611L8.84556 13.0896L8.44219 13.232L8.32695 13.2604L7.86595 13.3744L7.40496 13.4883L7.14565 13.5452L6.62704 13.6022L6.10842 13.6307H6.02199C5.67624 13.6022 5.38812 13.5737 5.12881 13.5167C4.8695 13.4598 4.63901 13.3174 4.43732 13.175C4.26445 13.0042 4.12039 12.8048 4.00514 12.577C3.91871 12.3492 3.86108 12.0644 3.86108 11.7796C3.86108 11.2955 3.97633 10.7544 4.20683 10.2419C4.43732 9.70079 4.72544 9.15972 5.12881 8.61865C5.50337 8.07759 5.99317 7.56499 6.51179 7.08088C7.03041 6.59677 7.60665 6.16961 8.24051 5.77093C8.87438 5.40072 9.47943 5.11595 10.0557 4.91661C10.6319 4.71727 11.1793 4.63184 11.6691 4.63184C12.1589 4.63184 12.7928 4.77422 13.1386 5.00204C13.4267 5.20138 13.5995 5.31529 13.8012 5.65702C13.83 5.71397 13.83 5.7994 13.8589 5.85636C13.8589 5.97027 13.7724 6.62524 13.7724 6.73915C13.7436 6.85306 13.7148 6.96697 13.686 7.08088C13.5995 7.19479 13.3402 7.28022 13.3114 7.39413Z" fill="url(#paint4_radial_955_247)"/>
<path d="M7.57708 0.901501C7.51946 1.12932 7.34659 1.35714 7.1449 1.58496C6.91441 1.81277 6.62629 2.06907 6.30935 2.29689C5.96361 2.52471 5.58905 2.75252 5.18568 2.95186C4.78232 3.15121 4.35014 3.29359 3.91796 3.43598C3.48578 3.54989 3.11122 3.60684 2.76547 3.63532C2.44854 3.63532 2.16042 3.60684 1.95874 3.52141C1.75705 3.43598 1.61299 3.32207 1.55537 3.15121C1.49775 3.00882 1.52656 2.80948 1.61299 2.58166C1.64181 2.52471 1.67062 2.43927 1.72824 2.38232C1.78587 2.32536 1.81468 2.23993 1.8723 2.18298C1.92993 2.12602 1.98755 2.04059 2.04517 1.98364C2.1028 1.92668 2.18923 1.84125 2.24686 1.7843L2.44854 1.61343L2.65023 1.44257L2.85191 1.30018L3.0536 1.1578L3.25528 1.04389L3.42815 0.929978L3.60102 0.816069C3.60102 0.816069 3.22647 1.10084 3.0536 1.32866C2.93835 1.44257 2.88072 1.55648 2.8231 1.67039C2.76548 1.7843 2.76547 1.86973 2.79429 1.95516C2.8231 2.04059 2.90954 2.09755 2.99597 2.12602C3.11122 2.1545 3.22647 2.18298 3.39934 2.1545C3.57221 2.1545 3.74508 2.09755 3.97558 2.04059C4.17726 1.98364 4.40776 1.89821 4.58063 1.81277C4.78232 1.72734 4.95519 1.61343 5.12806 1.49952C5.30093 1.38561 5.44499 1.27171 5.56024 1.1578C5.67549 1.04389 5.76192 0.929978 5.79074 0.816069C5.81955 0.70216 5.81955 0.616728 5.79074 0.559773C5.76192 0.502819 5.67549 0.445864 5.56024 0.417387C5.44499 0.38891 5.32974 0.38891 5.15687 0.417387C5.01281 0.445864 4.81113 0.445865 4.60944 0.531296C4.46538 0.559774 4.40776 0.588251 4.29251 0.645205C4.66707 0.445864 4.89756 0.360433 5.30093 0.218046C5.56024 0.132614 5.76192 0.07566 5.99242 0.0471828C6.28054 -0.00977179 6.51104 -0.00977189 6.74153 0.0187054C6.97203 0.0471827 7.1449 0.0756599 7.28896 0.161092C7.43302 0.246524 7.54827 0.331955 7.57708 0.445864C7.63471 0.588251 7.63471 0.730637 7.57708 0.901501Z" fill="#E30613"/>
<path d="M12.908 10.2705C12.908 10.2705 12.8215 10.5268 12.7351 10.6692C12.6486 10.8116 12.5046 11.0109 12.5046 11.0109C12.5046 11.0109 12.447 11.0679 12.4181 11.1248C12.3317 11.2387 12.1588 11.4381 12.1588 11.4381L11.9572 11.6659C11.7267 11.8937 11.4962 12.0931 11.208 12.3209C10.9199 12.5202 10.6318 12.7196 10.3149 12.8904C9.99794 13.0613 9.65219 13.2037 9.30645 13.3461C8.96071 13.46 8.61496 13.5739 8.24041 13.6593C8.18278 13.6878 8.09635 13.6878 8.03872 13.6878C7.9811 13.6878 7.89466 13.7163 7.83704 13.7163C7.77941 13.7163 7.69298 13.7447 7.63535 13.7447C7.57773 13.7447 7.49129 13.7447 7.43367 13.7732L7.0303 13.8017H6.94386H6.51168L6.0795 13.7732C6.0795 13.7732 5.99307 13.7732 5.96426 13.7447C5.79138 13.7163 5.67614 13.7163 5.50326 13.6593C5.33039 13.6308 5.04227 13.5454 5.04227 13.5454L4.81177 13.46L4.75415 13.4315C4.92702 13.4884 5.12871 13.5454 5.33039 13.5739C5.53207 13.6023 5.76257 13.6308 5.99307 13.6308C6.22356 13.6308 6.48287 13.6308 6.74218 13.6023C7.00149 13.5739 7.28961 13.5454 7.57773 13.46C8.2404 13.3176 8.87427 13.1182 9.47932 12.8335C10.0844 12.5772 10.6606 12.2354 11.1792 11.8652C11.6978 11.495 12.13 11.1248 12.5046 10.6977C12.7063 10.5553 12.7927 10.4129 12.908 10.2705Z" fill="#E30613"/>
<path d="M9.16253 0.361032L9.62352 0.531896L10.0845 0.731236L10.2574 0.816668C10.3726 0.873623 10.4879 0.959055 10.5743 1.04449C10.6608 1.12992 10.7472 1.24383 10.8048 1.32926C10.8624 1.44317 10.8913 1.55708 10.9201 1.69946C10.9489 1.84185 10.9201 1.98424 10.8913 2.12662C10.8048 2.5253 10.5743 2.98094 10.1998 3.4081C9.82521 3.86374 9.30659 4.31937 8.73035 4.74653C8.1253 5.17369 7.43381 5.60085 6.6847 5.94258C5.93558 6.28431 5.15766 6.59756 4.35092 6.7969C3.63062 6.96776 2.99676 7.08167 2.44933 7.08167C1.9019 7.08167 1.44091 7.02472 1.06635 6.91081C0.720609 6.76842 0.432488 6.59756 0.288428 6.34126C0.144368 6.08497 0.0867439 5.80019 0.17318 5.45846L0.201992 5.31608L0.346052 4.83196L0.518925 4.37633L0.691797 3.97765L0.835857 3.6644L0.778233 3.74983C0.634172 4.06308 0.60536 4.34785 0.691797 4.57567C0.778233 4.80349 0.951105 5.00283 1.23923 5.11674C1.52735 5.23065 1.93071 5.31608 2.39171 5.2876C2.88151 5.2876 3.42894 5.20217 4.0628 5.03131C4.69667 4.86044 5.33053 4.63262 5.90677 4.34785C6.51182 4.06308 7.05925 3.74983 7.54906 3.4081C8.03886 3.06637 8.44223 2.69617 8.75916 2.35444C9.0761 2.01271 9.27778 1.67099 9.36422 1.32926C9.39303 1.1584 9.42184 1.01601 9.39303 0.873623C9.36422 0.731236 9.30659 0.617327 9.22016 0.531896C9.13372 0.417986 9.01847 0.332554 8.87441 0.2756C8.78797 0.218645 8.67273 0.190168 8.55748 0.161691L8.38461 0.104736C8.47104 0.104736 8.49985 0.133213 8.55748 0.133213C8.55748 0.133213 8.73035 0.161691 8.81679 0.190168C8.93204 0.2756 9.16253 0.361032 9.16253 0.361032Z" fill="#E30613"/>
<path d="M12.2163 2.38234L12.562 2.8095L12.879 3.26514L13.023 3.49295C13.0518 3.57839 13.1095 3.63534 13.1383 3.72077C13.1671 3.8062 13.1959 3.89164 13.1959 3.97707C13.2247 4.0625 13.2247 4.14793 13.2247 4.23336C13.2247 4.3188 13.2247 4.4327 13.1959 4.51814C13.1383 5.03073 12.879 5.60027 12.4468 6.14134C12.0146 6.71089 11.4384 7.28043 10.7181 7.8215C9.99777 8.36257 9.16222 8.87516 8.26905 9.30232C7.37588 9.72948 6.42508 10.0712 5.44547 10.299C4.75398 10.4699 4.12012 10.5553 3.54388 10.5553C2.96764 10.5838 2.47783 10.5268 2.04565 10.4414C1.61347 10.356 1.26773 10.1851 1.00842 9.98577C0.749113 9.78643 0.547428 9.55861 0.43218 9.27384L0.316932 8.96059L0.172872 8.41952L0.057624 7.87845L0.0288119 7.73607L0 7.45129C0.028812 7.73607 0.14406 7.99236 0.345744 8.1917C0.57624 8.41952 0.893173 8.59038 1.29654 8.73277C1.69991 8.84668 2.21853 8.90364 2.79477 8.90364C3.37101 8.87516 4.03368 8.78973 4.75398 8.61886C5.64716 8.39104 6.56914 8.07779 7.40469 7.67911C8.26905 7.28043 9.04698 6.79632 9.73846 6.3122C10.4011 5.79961 10.9774 5.28702 11.3807 4.74595C11.7841 4.23336 12.0434 3.72077 12.1299 3.23666C12.1587 3.09427 12.1587 2.98036 12.1587 2.86645C12.1587 2.75255 12.1299 2.63864 12.1011 2.52473C12.0722 2.41082 12.0146 2.32539 11.957 2.23995C11.9282 2.183 11.8706 2.12605 11.8417 2.06909L12.1299 2.35386L12.2163 2.38234Z" fill="#E30613"/>
<path d="M13.8873 6.31055C13.9161 6.7377 13.9449 6.994 13.8585 7.42116C13.7433 8.07614 13.5704 8.47482 13.1958 8.98741C12.8213 9.52848 12.3027 10.0695 11.6688 10.5821C11.0349 11.0947 10.2858 11.5504 9.47908 11.9206C8.67235 12.2908 7.80799 12.604 6.94363 12.8034C6.48263 12.8888 6.05045 12.9742 5.64708 13.0027C5.24372 13.0312 4.86916 13.0312 4.52342 13.0027C4.17767 12.9742 3.88955 12.8888 3.60143 12.8034C3.34212 12.7179 3.08281 12.604 2.88113 12.4616L2.47776 12.1199L2.13202 11.8067C2.13202 11.8067 1.90152 11.5788 1.75746 11.408C1.67103 11.2941 1.52697 11.0947 1.52697 11.0947C1.69984 11.2656 1.90152 11.4365 2.13202 11.5788C2.42014 11.7212 2.76588 11.8351 3.16925 11.9206C3.57262 11.9775 4.03361 12.006 4.55223 12.006C5.07084 11.9775 5.61827 11.8921 6.19451 11.7782C7.14531 11.5788 8.09611 11.2371 8.96047 10.81C9.85364 10.3828 10.6604 9.89868 11.3519 9.35761C12.0434 8.81654 12.6196 8.247 13.023 7.67745C13.4263 7.10791 13.6856 6.53836 13.7433 6.02577C13.7433 5.96882 13.7433 5.91186 13.7433 5.85491C13.7433 5.79795 13.7433 5.741 13.7433 5.68404C13.7433 5.62709 13.8009 5.91186 13.8009 5.91186C13.8009 5.91186 13.8585 6.13968 13.8873 6.31055Z" fill="#E30613"/>
<defs>
<radialGradient id="paint0_radial_955_247" cx="0" cy="0" r="1" gradientUnits="userSpaceOnUse" gradientTransform="translate(10.9944 9.223) scale(4.56935 4.51626)">
<stop stop-color="white"/>
<stop offset="0.1891" stop-color="#FCE2D9"/>
<stop offset="0.4663" stop-color="#F7B39A"/>
<stop offset="0.5254" stop-color="#F4A285"/>
<stop offset="0.7541" stop-color="#EB5D40"/>
<stop offset="0.918" stop-color="#E52A1E"/>
<stop offset="1" stop-color="#E30613"/>
</radialGradient>
<radialGradient id="paint1_radial_955_247" cx="0" cy="0" r="1" gradientUnits="userSpaceOnUse" gradientTransform="translate(0.724584 4.12736) scale(4.42453 4.37313)">
<stop stop-color="white"/>
<stop offset="0.0500615" stop-color="#FDEBE4"/>
<stop offset="0.1151" stop-color="#FBD7C9"/>
<stop offset="0.186" stop-color="#F9C7B4"/>
<stop offset="0.2648" stop-color="#F8BCA5"/>
<stop offset="0.3577" stop-color="#F7B59D"/>
<stop offset="0.5" stop-color="#F7B39A"/>
<stop offset="0.5553" stop-color="#F4A285"/>
<stop offset="0.7696" stop-color="#EB5D40"/>
<stop offset="0.9232" stop-color="#E52A1E"/>
<stop offset="1" stop-color="#E30613"/>
</radialGradient>
<radialGradient id="paint2_radial_955_247" cx="0" cy="0" r="1" gradientUnits="userSpaceOnUse" gradientTransform="translate(7.22247 0.231827) scale(10.7638 10.6387)">
<stop stop-color="white"/>
<stop offset="0.0351878" stop-color="#FEF6F3"/>
<stop offset="0.1906" stop-color="#FAD2C3"/>
<stop offset="0.3093" stop-color="#F8BBA5"/>
<stop offset="0.3764" stop-color="#F7B39A"/>
<stop offset="0.4551" stop-color="#F6AE93"/>
<stop offset="0.5609" stop-color="#F49F82"/>
<stop offset="0.682" stop-color="#F18666"/>
<stop offset="0.8146" stop-color="#EC6043"/>
<stop offset="0.9549" stop-color="#E52A1E"/>
<stop offset="1" stop-color="#E30613"/>
</radialGradient>
<radialGradient id="paint3_radial_955_247" cx="0" cy="0" r="1" gradientUnits="userSpaceOnUse" gradientTransform="translate(8.31115 2.55286) scale(13.0872 12.9351)">
<stop stop-color="white"/>
<stop offset="0.00510117" stop-color="#FFFEFD"/>
<stop offset="0.1335" stop-color="#FBDED2"/>
<stop offset="0.2492" stop-color="#F9C6B4"/>
<stop offset="0.3472" stop-color="#F8B8A1"/>
<stop offset="0.4157" stop-color="#F7B39A"/>
<stop offset="0.5169" stop-color="#F49C7E"/>
<stop offset="1" stop-color="#E30613"/>
</radialGradient>
<radialGradient id="paint4_radial_955_247" cx="0" cy="0" r="1" gradientUnits="userSpaceOnUse" gradientTransform="translate(10.4082 4.9559) scale(10.5312 10.4088)">
<stop stop-color="white"/>
<stop offset="0.1891" stop-color="#FCE2D9"/>
<stop offset="0.4663" stop-color="#F7B39A"/>
<stop offset="0.5254" stop-color="#F4A285"/>
<stop offset="0.7541" stop-color="#EB5D40"/>
<stop offset="0.918" stop-color="#E52A1E"/>
<stop offset="1" stop-color="#E30613"/>
</radialGradient>
</defs>
</svg>
