<?xml version="1.0" encoding="UTF-8"?><svg id="Layer_2" xmlns="http://www.w3.org/2000/svg" viewBox="0 0 173.93 200"><defs><style>.cls-1{fill:#fff;}</style></defs><g id="Layer_1-2"><path class="cls-1" d="m71.83,108.17c-5.18,0-10.05-.73-14.62.12-21.57,4.02-30.51,30.63-16.04,47.17,8.08,9.23,18.19,12.39,29.86,8.73,11.27-3.55,18.15-11.54,19.87-23.31.83-5.69.86-11.54.86-17.31,0-40.21-.1-80.43-.16-120.64,0-.87,0-1.74,0-2.92h34.33c.46,3.35.67,6.73,1.4,9.99,4.64,20.94,22.58,36.08,44.27,37.39,1.94.12,2.35.81,2.34,2.58-.08,9.72-.11,19.45-.01,29.17.03,2.44-.91,2.92-3.13,2.79-15.53-.97-30.21-4.49-42.93-14.03-.25-.18-.59-.24-1.23-.5-.11.92-.28,1.71-.28,2.5,0,22.07.11,44.15-.02,66.22-.18,30.78-20.45,56.23-50.59,62.51C39.64,206.14,6.61,182.14.94,147.67c-5.36-32.51,12.8-60.19,40.38-70.78,9.02-3.46,18.51-4.08,28.07-3.63.85.04,2.33,1.44,2.34,2.22.15,11.12.11,22.24.11,32.7Z"/></g></svg>