<?xml version="1.0" encoding="UTF-8"?><svg id="Layer_2" xmlns="http://www.w3.org/2000/svg" viewBox="0 0 2697.56 250.27"><g id="Layer_1-2"><path d="m1066.94,0c13.54.11,26.04,4.24,38.83,7.72,36.6,9.97,73.11,49.34,81.48,86.73,2.25,10.07,4.17,20.39,4.52,30.64,1.02,29.85-9.22,56.07-29.36,78.68-22.06,24.76-49.25,41.01-83.01,45.49-22.12,2.94-43.39-.72-63.83-9.73-28.38-12.51-49.48-32.31-64.56-58.44-6.39-11.07-9.44-23.16-11.28-35.59-3.1-20.88-1.99-41.56,4.18-61.79,1.75-5.74,4.62-11.32,7.9-16.42,9.43-14.62,19.72-28.43,33.74-39.64,17.07-13.64,36.74-20.85,57.9-25.02,7.7-1.52,15.65-1.79,23.49-2.64Zm-100.08,126.9c0,4.5-.31,9.02.06,13.49,1,11.99,6.47,22.4,12.79,32.49,21.78,34.8,54.49,49.88,95.35,46.11,33.23-3.06,59.41-19.03,75.37-48.58,10.19-18.86,15.26-38.75,11.39-59.96-4.38-23.99-15.93-44.27-35.7-59.75-9.91-7.76-20.36-14.6-33.28-16.96-14.03-2.57-28.2-3.45-42.34-2.22-12.75,1.11-25.56,3.38-36.27,10.81-29.88,20.71-49.39,47.08-47.37,84.58Z"/><path d="m1524.23,243.12c-2.78,2.77-5.72,4.09-8.8,4.15-8.58.15-17.16-.07-25.74-.27-5.86-.14-10.38-2.97-14.06-7.17-15.43-17.59-30.9-35.16-46.24-52.82-14.6-16.8-29.03-33.73-43.61-50.54-3.99-4.6-8.4-8.73-15.65-9.56-.29,3.04-.82,5.9-.8,8.75.16,33.66.41,67.33.63,100.99,0,.68.02,1.35.02,2.03.04,7.96-1.22,9.44-9.35,9.37-5.79-.05-11.57-.69-17.35-1.17-3.43-.28-4.57-2.24-4.54-5.54.34-35.12.64-70.24.8-105.36.06-14.41-.39-28.82-.37-43.22.03-21.62.32-43.23.36-64.85.01-6.63-.36-13.27-.72-19.89-.18-3.35,1.36-4.79,4.66-4.83,16.5-.19,33-.43,49.5-.57,10.7-.09,21.4-.02,32.1-.08,16.61-.1,32.54,3.31,46.92,11.11,17.09,9.28,28.4,23.81,34.24,41.88,6.45,19.95,5.34,39.72-3.39,58.98-2.69,5.93-6.9,10.7-12.03,14.67-8.44,6.52-23.32,1.58-25.71-8.6-.49-2.11.11-4.76,1.03-6.81,1.8-4.01,3.99-7.89,6.34-11.63,14.91-23.64,5.7-47.19-14.25-62.3-6.24-4.73-13.99-5.73-21.52-5.71-21.27.05-42.54.69-63.8,1.01-2.73.04-4.1.94-4.08,3.68.05,7.87-.47,15.79.17,23.61.71,8.6,6.52,15.05,11.88,21.39,25.29,29.86,50.6,59.71,76.15,89.36,19.44,22.56,39.24,44.83,58.92,67.19,2.78,3.16,2.89,3.08,8.31,2.75Z"/><path d="m450.8,246.8c-20.58,0-41.17.02-61.75-.03-2.54,0-5.09-.37-7.62-.65-3.18-.35-4.2-2.33-4.17-5.19.27-21.94.67-43.89.71-65.83.1-46.84,0-93.69-.02-140.53,0-8.54-.06-17.08-.12-25.63-.03-5.08.9-6.22,6.16-6.38,9.87-.3,19.75-.52,29.62-.57,16.74-.08,33.47.01,50.21,0,14.77-.01,29.54-.27,44.31-.01,6.59.12,13.15,1.25,19.73,1.91,2.37.24,3.36,1.33,3.27,3.76-.3,7.42-.44,14.84-.56,22.26-.04,2.6-1.59,3.59-3.91,3.82-1.85.18-3.71.22-5.57.22-33.61.02-67.22.01-100.83.04-8.08,0-8.09.1-8.05,7.9.07,14.08.16,28.15.1,42.23-.02,5.62-.48,11.25-.59,16.87-.15,7.84.39,8.4,8.64,8.42,15.82.03,31.63-.07,47.45-.08,15.35,0,30.7.01,46.05.04,12,.02,12.99.93,12.95,12.32-.01,3.81,0,7.68-.65,11.41-.84,4.88-3.09,6.31-8.18,6.31-31.98-.04-63.96-.06-95.94-.07-1.27,0-2.57.05-3.82.28-5.13.94-6.65,2.44-6.6,7.43.12,13.05.56,26.1.66,39.16.06,6.86-.25,13.72-.51,20.58-.27,6.9,1.92,9.24,9.07,9.24,29.19.02,58.38-.02,87.57.05,5.69.01,11.38.35,17.06.7,4.75.3,5.59,1.27,5.61,5.85.02,5.86-.03,11.71,0,17.57.02,3.32-1.36,5.4-5,5.6-5.57.31-11.13.84-16.7.87-18.83.11-37.66.04-56.49.04-.7,0-1.4,0-2.09,0v.08Z"/><path d="m1754.73,246.86c-21.64,0-43.27,0-64.91,0-1.05,0-2.09,0-3.14,0-7.17-.12-8.68-1.72-8.66-8.7.27-71.95.53-143.91.73-215.86.01-4.61-.42-9.21-.69-13.82-.14-2.44.88-3.92,3.46-4.13,2.07-.17,4.16-.32,6.24-.31,30.58.13,61.17.36,91.75.4,12.09.02,24.18-.39,36.27-.58,3.7-.06,7.41-.18,11.09.12.94.07,2.51,1.62,2.5,2.48-.11,7.64-.47,15.28-.83,22.91-.16,3.46-2.03,4.7-5.7,4.69-33.73-.12-67.46-.1-101.2-.06-2.77,0-5.56.33-8.32.66-2.64.32-4.14,1.74-4.17,4.5-.23,21.16-.53,42.33-.72,63.49-.04,4.37,1.49,5.96,6.1,6.01,24.07.3,48.14.5,72.2.67,10.35.08,20.7-.02,31.06.03,7.52.03,8.82.96,9.34,8.16.4,5.57.11,11.2-.05,16.81-.08,2.74-1.88,4.32-4.64,4.65-2.18.26-4.4.39-6.6.38-31.17-.02-62.34-.11-93.52-.08-2.85,0-5.81.29-8.53,1.07-3.05.87-4.58,3.29-4.68,6.45-.22,7.42-.58,14.84-.66,22.27-.13,12.95-.1,25.9-.12,38.85-.01,6.12,1.98,8.12,8.3,8.12,33.27.01,66.53,0,99.8-.02,1.74,0,3.5-.06,5.23.07,5.48.39,7.51,2.18,7.53,7.38.02,6.27-.29,12.54-.62,18.81-.18,3.44-2.23,4.62-5.82,4.6-22.68-.13-45.36-.06-68.05-.06v.04Z"/><path d="m13.34,2.96c4.17.3,8.34.57,12.51.9,4.33.35,7.46,2.35,9.02,6.37,1.72,4.42,3.28,8.9,5.1,13.28,6.74,16.16,14.46,32,20.13,48.51,7.91,23.03,18.93,44.75,27.95,67.29,4.66,11.64,8.71,23.5,13.2,35.21,1.25,3.25,2.91,6.38,4.64,9.43,2.21,3.87,5.79,4.17,8.5.51,2.35-3.18,4.52-6.61,6.03-10.22,10.99-26.15,21.74-52.4,32.69-78.57,6.46-15.43,13.22-30.73,19.7-46.15,5.21-12.39,10.37-24.82,15.23-37.34,2.58-6.65,7.62-8.91,14.34-8.97,4.77-.04,9.54-.11,14.31.02,4.54.12,5.46,1.06,3.92,5.11-3.89,10.23-8.09,20.34-12.29,30.46-14.99,36.12-29.98,72.24-45.08,108.31-5.63,13.45-11.78,26.7-17.33,40.18-6.67,16.2-13.04,32.51-19.34,48.84-2.98,7.73-9.08,10.71-16.93,11.36-4.78.4-8.48-1.56-10.56-5.71-1.82-3.63-3.13-7.5-4.71-11.24-5.86-13.84-11.86-27.63-17.6-41.52-17.27-41.78-34.44-83.59-51.66-125.39-5.43-13.17-10.8-26.35-16.44-39.43-2.14-4.97-5.1-9.6-7.46-14.49C-1.13,4.89-.22,3.52,5.3,3.23c2.67-.14,5.35-.02,8.02-.02,0-.08.01-.16.02-.24Z"/><path d="m2060.48,141.74c0-32.88,0-65.76,0-98.64,0-7.81-1.04-8.91-9.26-9.08-6.63-.14-13.26-.04-19.89-.05-13.61-.02-27.21-.02-40.82-.07-6.2-.02-7.55-.89-7.93-6.85-.44-6.84-.2-13.73-.22-20.6,0-2.54,2.16-2.38,3.76-2.5,7.07-.52,14.14-1.25,21.22-1.26,49.08-.13,98.16-.14,147.24-.05,4.97,0,9.94.87,14.9,1.36,2.11.21,3.31,1.06,3.19,3.45-.36,7.41-.56,14.83-.74,22.25-.06,2.5-1.28,3.75-3.76,3.93-1.97.14-3.94.32-5.91.32-20.93.03-41.87.02-62.8.04-5.67,0-5.91.15-6.62,5.43-.35,2.55-.46,5.15-.45,7.73.14,51.9.27,103.81.51,155.71.06,12.6.46,25.2.76,37.8.13,5.5-.62,6.53-6.37,6.83-7.07.38-14.15.61-21.23.68-4.47.05-5.59-1.25-5.59-5.42,0-33.67,0-67.34,0-101.01h.03Z"/><path d="m2405.53,141.19c0-32.21,0-64.42,0-96.63,0-8.63-1.48-10.26-10.64-10.52-7.21-.2-14.42-.07-21.63-.08-13.26-.01-26.52,0-39.78-.04-4.96-.02-6.02-.8-6.36-5.56-.42-5.83-.59-11.69-.6-17.53,0-6,1.72-7.61,7.95-7.65,32.79-.24,65.59-.48,98.38-.62,22.8-.1,45.6-.08,68.39-.02,11.71.03,10.57,1.57,10.81,11.22.11,4.6-.09,9.25-.63,13.82-.67,5.66-1.79,6.4-7.64,6.4-19.19,0-38.38-.03-57.58-.02-2.32,0-4.68-.07-6.95.29-4.29.69-4.99,1.61-5.02,5.79-.23,32.09-.49,64.18-.64,96.27-.09,19.37-.1,38.74.03,58.11.09,14.41.48,28.82.68,43.23.02,1.67-.02,3.41-.43,5.02-.94,3.72-3.3,5.46-7.28,5.53-4.77.08-9.54.09-14.3.03-5.27-.07-7-1.79-7.01-7.03-.02-10.92.05-21.85.06-32.77.01-22.41,0-44.82,0-67.23.06,0,.12,0,.18,0Z"/><path d="m760.99,246.82c-22.09,0-44.19.02-66.28-.03-2.54,0-5.08-.37-7.61-.65-3.41-.38-4.71-2.47-4.7-5.61.15-56.29.3-112.57.41-168.86.04-20.94-.03-41.88-.05-62.82,0-4.3.58-4.97,4.97-5.01,7.56-.06,15.12.04,22.67-.02,2.86-.02,4.36,1.23,4.57,3.94.13,1.68.24,3.37.23,5.05-.21,40.86-.48,81.72-.63,122.58-.09,23.53-.02,47.06.02,70.59.01,7.01,1.55,8.8,8.61,9.72,2.98.39,6.03.34,9.04.34,28.26.02,56.51-.02,84.77.04,4.52,0,9.04.42,13.56.65,3.49.18,5.82,1.73,5.91,5.3.16,6.17.48,12.36.06,18.51-.34,5.04-2.33,6.26-7.55,6.26-22.67-.01-45.35,0-68.02,0v.03Z"/><path d="m2697.47,124.06c0,38.06,0,76.12,0,114.18,0,6.59-1.08,7.78-7.82,7.75-5.57-.02-11.16-.14-16.7-.65-4.83-.44-5.91-1.79-5.93-5.8-.23-63.16-.44-126.33-.69-189.49-.06-13.73-.27-27.46-.4-41.18-.02-2.55.8-4.41,3.94-4.4,8.47.04,16.94-.02,25.4.15.74.01,1.76,1.34,2.1,2.24.37,1,.1,2.22.1,3.35,0,37.95,0,75.9,0,113.84Z"/></g></svg>