<?xml version="1.0" encoding="UTF-8"?><svg id="Layer_2" xmlns="http://www.w3.org/2000/svg" viewBox="0 0 199.85 200"><defs><style>.cls-1{fill:#fff;}</style></defs><g id="Layer_1-2"><path class="cls-1" d="m199.79,100.46c0,4.74-.13,9.48.04,14.22.16,4.63-.61,9.07-1.95,13.46-4.53,14.9-11.78,28.33-22.69,39.57-8.05,8.3-17,15.56-27.49,20.81-5.5,2.75-11.03,5.41-16.89,7.31-4.33,1.4-8.84,1.96-13.31,2.76-6.84,1.22-13.73,1.62-20.65,1.33-3.71-.16-7.43-.52-11.1-1.07-4.59-.69-9.2-1.45-13.69-2.6-3.55-.92-6.97-2.37-10.37-3.78-12.62-5.23-23.56-12.96-33.1-22.6-11.33-11.46-19.54-24.82-24.19-40.27-1.74-5.77-3.15-11.61-3.81-17.6-.68-6.19-.7-12.41-.45-18.63.43-10.92,3.01-21.36,7.07-31.47,2.07-5.14,4.98-9.86,7.78-14.63,5.48-9.36,12.42-17.48,20.86-24.31,7.76-6.29,16.36-11.26,25.55-15.21,4.27-1.84,8.53-3.76,13.15-4.59,4.89-.89,9.8-1.69,14.73-2.32C92.99.35,96.74-.02,100.48,0c4.56.02,9.12.5,13.67.76,4.56.26,9,1.19,13.34,2.51,3.22.98,6.43,2.04,9.52,3.34,4.79,2.02,9.61,4.05,14.18,6.51,5.64,3.04,10.68,7.02,15.68,11.03,8.09,6.48,14.18,14.56,19.75,23.11,5.46,8.38,9.07,17.56,11.84,27.09.99,3.42,1.42,6.91,1.35,10.5-.1,5.2-.03,10.41-.03,15.61Zm-98.85-41.26s0-.02,0-.03c-3.14,0-6.27-.03-9.41,0-2.46.03-4.93.04-7.38.22-3.44.25-6.88.62-10.31.97-4.38.44-8.72,1.16-12.81,2.83-5.52,2.25-9.5,5.96-10.99,11.93-1.38,5.52-2.21,11.13-2.23,16.8-.02,6.59.22,13.19.58,19.77.2,3.67.73,7.33,1.36,10.96.55,3.2,1.79,6.18,3.95,8.73,2.65,3.12,6.24,4.69,10.01,5.85,5.46,1.68,11.19,1.86,16.83,2.4,4.95.48,9.94.62,14.92.7,5.21.08,10.43.06,15.63-.18,6.02-.29,12.03-.8,18.04-1.35,4.54-.41,8.96-1.4,13.09-3.43,3.99-1.96,7.16-4.72,8.48-9.05.87-2.85,1.71-5.77,1.99-8.72.45-4.76.47-9.57.59-14.36.07-2.7.02-5.41-.08-8.11-.15-3.74-.42-7.48-.6-11.22-.16-3.35-.67-6.63-1.6-9.86-1.41-4.86-4.52-8.21-9.11-10.22-1.92-.84-3.92-1.61-5.97-2.02-3.52-.71-7.09-1.24-10.66-1.63-4.13-.45-8.28-.78-12.43-.94-3.95-.16-7.92-.03-11.87-.03Z"/><path class="cls-1" d="m90.43,100.95c0-3.25-.01-6.51.01-9.76,0-.57.2-1.14.26-1.72.22-1.86,1.56-2.54,3.32-1.99,2.31.73,4.58,1.63,6.77,2.65,5.49,2.55,10.93,5.19,16.38,7.83.67.32,1.21.89,1.81,1.35.53.4.51.88.03,1.24-1.18.89-2.34,1.85-3.64,2.53-2.18,1.13-4.45,2.08-6.7,3.06-4.93,2.15-9.87,4.29-14.82,6.4-.47.2-1.02.33-1.52.32-1.4-.04-1.88-.51-1.89-1.89-.03-3.34,0-6.68,0-10.02,0,0,0,0,0,0Z"/></g></svg>