<?xml version="1.0" encoding="UTF-8"?><svg id="Layer_2" xmlns="http://www.w3.org/2000/svg" viewBox="0 0 200.12 200"><defs><style>.cls-1{fill:#fff;}</style></defs><g id="Layer_1-2"><path class="cls-1" d="m117.07,127.3c6.4,0,12.36-.08,18.32.04,2.59.05,3.7-.78,4.05-3.51.87-6.89,2.02-13.76,3.23-20.6.48-2.71-.32-3.48-3.05-3.41-6.71.19-13.42.05-20.13.1-1.7.01-2.94-.26-2.91-2.36.09-6.83-.14-13.67.25-20.48.37-6.56,3.68-10.08,10.17-10.8,5.03-.56,10.15-.31,15.23-.45.61-.02,1.21-.17,2.32-.33,0-7.56.06-15.08-.1-22.6-.01-.68-1.29-1.81-2.11-1.94-10.46-1.67-20.97-2.87-31.49-.67-14.5,3.04-25.79,16.57-26.66,32.05-.44,7.81-.58,15.64-.61,23.47,0,2.93-.6,4.23-3.91,4.08-5.95-.27-11.93,0-17.89-.07-2.51-.03-3.4.76-3.31,3.51.24,7.8.09,15.61.09,24.02,5.02,0,9.94,0,14.85,0,10.06,0,10.03,0,10.1,10.07.15,20.25.34,40.51.5,60.76,0,.35-.14.71-.37,1.81-5.65-1.45-11.42-2.35-16.75-4.38C29.47,181.4,7.71,154.13,1.39,114.85c-4.34-26.98,1.49-52.12,17.93-74.01C39.52,13.93,66.78-.29,100.68,0c53.42.46,91,39.16,98.16,85.04,7.5,48.06-19.44,85.75-47.64,102.11-9.82,5.7-20.25,9.92-31.47,12.07-2.3.44-3.31.18-3.3-2.27.12-22.24.22-44.48.34-66.73,0-.84.17-1.68.3-2.93Z"/></g></svg>