<?xml version="1.0" encoding="UTF-8"?><svg id="Layer_2" xmlns="http://www.w3.org/2000/svg" viewBox="0 0 1479.62 1340.38"><defs><style>.cls-1{fill:#121413;}</style></defs><g id="Layer_1-2"><path class="cls-1" d="m0,53.54c2.61-3.78,5.35-7.48,7.78-11.37,1.41-2.26,2.35-4.81,3.45-7.25C18.61,18.59,31.25,8.89,48.67,5.14,64.83,1.67,81.16-.01,97.69,0c120.55.1,241.1.21,361.65.22,276.24.02,552.49,0,828.73-.02,16.48,0,32.95.05,49.43-.05,29.99-.18,59.74,2.33,89.19,8.07,11.97,2.33,23.34,6.1,32.55,14.7,16.2,15.13,21.77,44.29,12.17,64.2-4.05,8.39-10.84,13.83-18.94,18.04-11.3,5.88-23.56,8.85-35.82,11.47-14.58,3.13-29.32,5.9-44.13,7.53-15.33,1.69-30.83,2.49-46.26,2.51-36.98.05-73.96-.88-110.95-.89-330.55-.09-661.1-.09-991.65-.03-37.15,0-74.31.61-111.46.79-16.68.08-33.11-1.42-49.07-7.08-11.19-3.97-22.81-6.71-33.33-12.51-9.38-5.17-17.81-11.31-23.88-20.38C4.42,84.32,2,82.68,0,80.76c0-9.07,0-18.14,0-27.21Z"/><path class="cls-1" d="m78.69,1337.41c-1.68-1.67-.19-1.72,1-2.11,7.9-2.6,16.08-3.07,24.31-3.55,10.35-.61,20.66-1.86,31.02-2.47,7.16-.42,14.36-.31,21.54-.3,13.27.01,26.55.15,39.82.18,40.51.1,81.01.19,121.52.27,51.26.11,102.53.22,153.79.32,45.21.09,90.43.14,135.64.23,57.82.11,115.64.21,173.46.34,45.38.1,90.76.24,136.14.32,51.43.1,102.86.14,154.29.24,45.21.08,90.42.22,135.64.31,41.17.07,82.35.09,123.53.16,11.59.02,23.2-.19,34.77.39,9.18.46,18.33,1.78,27.44,3.11,3.07.45,5.97,2.08,8.89,3.29.18.07-.07,1.18-.13,1.81-440.99-.84-881.65-1.69-1322.68-2.53Z"/><path class="cls-1" d="m0,667.34c.28.17.56.34.84.5-.28.17-.56.34-.84.5,0-.34,0-.67,0-1.01Z"/><path class="cls-1" d="m0,671.37c.2.09.41.18.61.27-.2.25-.41.49-.61.74,0-.34,0-.67,0-1.01Z"/><path class="cls-1" d="m741.55,605.08c203.45,0,406.91,0,610.36,0,12.11,0,24.22-.29,36.32-.03,15.13.33,30.07,2.11,44.84,5.78,23.75,5.9,37.42,21.09,44.06,44.15,5,17.4,2.09,33.44-5.48,49.2-2.56,5.33-7.22,8.26-12.32,10.62-10.29,4.78-21.32,6.95-32.37,8.98-34.65,6.38-69.59,8.38-104.82,8.34-238.26-.25-476.52-.16-714.78-.17-122.24,0-244.49.17-366.73-.09-20.82-.04-41.62-2.09-62.44-2.82-20.99-.74-42.01-.9-63.01-1.49-15.79-.44-31.63-.59-47.35-1.98-10.45-.92-20.95-3.04-31.04-5.96-16.54-4.78-27.39-19.66-28.98-36.78-1.04-11.2-.45-22.08,2.87-32.86,7.09-23.02,22.38-36.73,46.12-41.07,17.26-3.15,34.66-4.04,52.19-4.02,114.17.08,228.33.02,342.5.02,96.68,0,193.37,0,290.05,0v.17Z"/><path class="cls-1" d="m390.39,1217.83c79.7,0,159.4-.05,239.1.05,11.93.02,23.86,1.18,35.79,1.06,17.13-.17,34.26-.95,51.39-1.63,28.72-1.13,57.43-3.38,86.15-3.43,178.57-.31,357.13-.2,535.7-.05,28.24.02,56.46,1.42,84.41,5.88,10.44,1.66,20.92,3.73,30.09,9.34,13.24,8.1,20.02,20.82,23.99,35.3,2.87,10.46,2.95,20.83-.88,31.15-2.39,6.42-5.8,12.09-11.03,16.56-16.82,14.36-36.31,23.42-57.87,27.7-5.56,1.1-11.91.73-17.38-.81-9.18-2.58-18.5-3.36-27.83-3.85-10.88-.57-21.82-.23-32.73-.11-7.51.08-15.02.68-22.53.66-8-.02-15.99-.59-23.99-.74-2.66-.05-5.33.69-7.99.65-8-.11-15.99-.51-23.99-.62-2.83-.04-5.67.68-8.49.64-8-.11-15.99-.53-23.99-.64-2.83-.04-5.67.68-8.49.64-8-.12-15.99-.54-23.99-.65-2.83-.04-5.67.7-8.49.66-8-.12-15.99-.64-23.99-.66-7.49-.02-14.98.38-22.47.6-.5.01-1.01.11-1.51.1-8-.23-15.99-.56-23.99-.67-2.83-.04-5.67.68-8.49.64-8-.12-15.99-.54-23.99-.65-2.83-.04-5.67.7-8.49.65-8-.12-15.99-.63-23.99-.66-7.49-.02-14.98.38-22.47.59-.5.01-1.01.11-1.51.1-8-.23-15.99-.56-23.99-.67-2.83-.04-5.67.68-8.49.64-8-.12-16-.55-24-.66-2.83-.04-5.67.7-8.49.66-8-.12-15.99-.63-23.99-.65-7.49-.02-14.98.37-22.47.59-.5.01-1.01.12-1.51.1-8-.23-16-.55-24-.66-2.83-.04-5.67.67-8.49.63-8-.12-15.99-.53-23.99-.65-2.83-.04-5.67.69-8.49.65-8-.12-15.99-.64-23.99-.67-7.49-.03-14.98.36-22.48.57-.5.01-1.01.12-1.51.1-8-.23-15.99-.55-23.99-.65-2.83-.04-5.66.69-8.49.64-8-.12-15.99-.53-23.99-.67-2.49-.04-4.99.66-7.48.62-8.16-.12-16.33-.43-24.49-.63-1.67-.04-3.35.06-5.02.19-1.33.1-2.66.53-3.98.49-8-.2-15.99-.58-23.99-.7-2.99-.04-6,.73-9,.68-7.83-.12-15.65-.67-23.48-.69-7.49-.02-14.97.42-22.46.65-.5.02-1.01.09-1.51.07-7.99-.24-15.99-.57-23.98-.71-2.49-.04-4.99.67-7.48.64-8.16-.12-16.32-.44-24.49-.64-1.67-.04-3.34.09-5.01.22-1.5.11-3,.51-4.49.47-7.83-.2-15.65-.68-23.48-.7-7.49-.02-14.97.41-22.46.64-.5.02-1.01.1-1.51.08-8-.24-15.99-.57-23.99-.71-2.49-.04-4.99.66-7.48.63-8.16-.11-16.32-.43-24.49-.62-1.67-.04-3.35.06-5.02.19-1.33.1-2.66.52-3.98.49-8-.2-15.99-.58-23.98-.7-2.99-.04-6,.73-9,.68-7.83-.12-15.65-.67-23.48-.68-7.49-.02-14.97.42-22.46.65-.5.02-1.01.09-1.51.07-7.99-.24-15.99-.57-23.98-.71-2.49-.04-4.99.67-7.48.64-8.16-.12-16.32-.44-24.49-.64-1.67-.04-3.34.09-5.01.21-1.5.11-3,.51-4.49.47-7.83-.2-15.65-.68-23.48-.7-7.49-.02-14.98.4-22.47.63-.5.02-1.01.09-1.51.07-8-.24-15.99-.57-23.99-.68-3-.04-6.01.67-9.01.62-7.84-.11-15.69-.67-23.53-.63-7.83.04-15.66.66-23.5.89-6.85.21-13.71.16-20.56.37-3.99.12-7.98.58-11.97.76-2.67.12-5.35-.05-8.02.05-14.36.56-28.72,1.66-43.07,1.58-8.66-.05-17.41-1.37-25.94-3.06-10.68-2.11-19.63-7.67-26.44-16.31-8.42-10.68-15.21-22.33-16.72-36.02-1.74-15.72.16-31.16,7.16-45.63,3.14-6.5,8.72-10.32,15.54-11.71,10.18-2.08,20.45-3.88,30.76-5.06,40.88-4.71,81.96-2.72,122.95-2.96,68.43-.4,136.87-.11,205.3-.11v.16Z"/></g></svg>