<?xml version="1.0" encoding="UTF-8"?><svg id="Layer_2" xmlns="http://www.w3.org/2000/svg" viewBox="0 0 1545.78 1616.6"><g id="Layer_1-2"><path d="m0,66.37C12.85,28.74,41.11,8.87,78.32,1.26c23.04-4.71,43.57,4.27,60.48,19.74,16.56,15.16,32.06,31.5,47.79,47.55,26.69,27.22,53.29,54.54,79.78,81.96,40.71,42.15,81.33,84.39,121.9,126.66,32.39,33.75,64.79,67.49,96.95,101.45,52.54,55.47,104.94,111.07,157.32,166.69,41.65,44.23,83.18,88.57,124.77,132.86.45.48.98.9,1.78,1.63,14.36-10.95,29.32-21.04,41.87-34.33,42.85-45.39,85.99-90.51,128.98-135.78,46.77-49.25,93.49-98.54,140.23-147.81,45.48-47.95,90.99-95.87,136.43-143.85,38.23-40.37,76.14-81.04,114.66-121.12,22.95-23.88,46.46-47.25,70.36-70.18,13.37-12.82,29.2-22.11,48.04-24.85,35.34-5.14,82.35,17.69,90.74,59.67,4.28,21.42-1.48,40.52-15.58,56.61-18.53,21.15-37.76,41.7-57.03,62.2-60.66,64.51-121.92,128.46-182.13,193.4-89.06,96.06-177.47,192.72-266.02,289.25-42.2,46-84.09,92.28-126.11,138.44-1.21,1.33-2.36,2.71-3.83,4.4,7.38,7.78,14.56,15.37,21.76,22.94,48.07,50.54,96.15,101.06,144.2,151.61,41.86,44.03,83.8,87.99,125.52,132.16,61.37,64.98,122.73,129.99,183.81,195.25,47.66,50.92,95.1,102.04,142.16,153.51,10.95,11.98,20.41,25.45,29.68,38.83,11.35,16.38,11.9,33.4,1.71,51.1-18.3,31.78-45.26,50.93-81.29,56.86-13.54,2.23-25.61-3.12-34.96-12.55-37.89-38.16-75.52-76.58-112.95-115.21-34.75-35.86-69.14-72.09-103.65-108.18-45.44-47.53-90.85-95.07-136.25-142.64-31.15-32.63-62.39-65.17-93.33-98-48.63-51.6-97.13-103.33-145.51-155.17-17.73-19-35.37-38.05-56.43-53.51-.93-.68-1.79-1.44-1.65-1.32-8.2,7.58-16.55,14.49-23.96,22.29-38.06,40.07-75.91,80.34-113.77,120.6-58.95,62.69-117.8,125.47-176.78,188.13-42.89,45.57-85.82,91.12-128.93,136.49-31.76,33.43-63.17,67.23-95.94,99.65-36.68,36.28-74.69,71.2-112.17,106.67-5.19,4.91-10.31,10-16.06,14.21-12.79,9.36-26.35,9.42-38.82-.02-18.63-14.11-35.56-30.09-50.3-48.3C8.17,1551.82,2.47,1541.45,0,1529.47c0-2.33,0-4.66,0-7,.95-3.32,1.27-7.01,2.95-9.91,5.48-9.44,10.32-19.6,17.46-27.68,23.58-26.68,47.87-52.72,72.21-78.72,82.57-88.19,165.01-176.51,248.01-264.29,56.25-59.5,113.18-118.36,170.13-177.2,43.65-45.09,87.84-89.66,131.68-134.57,6.94-7.11,13.3-14.8,19.89-22.25,1.89-2.14,1.32-3.94-.53-6.05-13.74-15.63-26.98-31.7-41.07-46.99-29.88-32.43-60.04-64.61-90.33-96.66-57.61-60.97-115.37-121.79-173.09-182.64-45.81-48.3-91.7-96.53-137.5-144.83-58.17-61.35-116.29-122.74-174.43-184.11C26.53,126.69,6.61,107.52,0,79.37v-12.99Z"/></g></svg>