<?xml version="1.0" encoding="UTF-8"?><svg id="Layer_2" xmlns="http://www.w3.org/2000/svg" viewBox="0 0 202.38 200"><defs><style>.cls-1{fill:#fff;}</style></defs><g id="Layer_1-2"><path class="cls-1" d="m101.03,199.96c-8.94,0-17.88.09-26.82-.03-7.14-.09-14.3-.21-21.42-.75-6.42-.49-12.71-1.86-18.66-4.5-3.62-1.6-7.33-2.97-10.58-5.3-8.45-6.06-15-13.56-18.62-23.38-1.92-5.21-3.26-10.53-3.72-16.05C.46,140.96.03,131.95.02,122.92c-.01-16.05-.05-32.11.03-48.16.02-4.87.37-9.74.59-14.61.16-3.48.29-6.96.54-10.43.45-6.2,2.29-12.07,4.7-17.76,3.45-8.18,8.96-14.83,16.15-20.06,4.24-3.09,9.08-5.19,13.94-7.21,4.48-1.86,9.16-2.72,13.95-3.06,7.44-.54,14.9-.98,22.35-1.44,1.91-.12,3.82-.15,5.73-.15,16.68-.01,33.35-.06,50.03.03,4.69.03,9.4.38,14.08.81,5.88.53,11.74,1.24,17.6,2,1.79.23,3.57.76,5.26,1.39,4.57,1.69,8.99,3.7,13.12,6.31,10.46,6.62,17.24,15.92,20.64,27.67,1.48,5.09,2.41,10.28,2.83,15.55,1.07,13.42.81,26.86.84,40.3.03,10.77-.05,21.54-.17,32.31-.07,6.12-.2,12.25-.52,18.36-.41,7.96-1.92,15.7-5.13,23.07-3.75,8.64-9.59,15.62-17.16,21.26-2.15,1.6-4.49,2.86-6.99,3.83-3.58,1.37-7.11,2.95-10.78,4.04-5.3,1.58-10.77,2.38-16.32,2.48-9.91.19-19.81.4-29.72.54-4.85.07-9.7.01-14.56.01,0,0,0,0,0-.01Zm1.78-150.8c-4.02-.15-7.73,0-11.37.74-4.76.96-9.15,2.95-13.46,5.06-2.05,1-3.98,2.25-5.87,3.52-6.56,4.43-12.15,9.74-15.94,16.78-5.44,10.1-7.79,20.73-5.88,32.09,2.71,16.12,11.58,28.11,25.51,36.64,6.16,3.77,13.06,5.24,20.08,6.33,4.41.69,8.76.24,13.14-.49,8.43-1.4,16.01-4.6,22.85-9.65,7.51-5.54,13.03-12.6,16.78-21.01,2.62-5.88,3.85-12.12,3.95-18.53.1-5.97-1.14-11.76-3.11-17.39-1.72-4.9-3.87-9.61-7.28-13.62-5.24-6.18-11.33-11.38-18.67-15.02-6.62-3.28-13.43-5.92-20.75-5.45Zm52.43-13.98c-6.39.03-11.63,5.01-11.65,11-.02,7.52,5.78,12.23,11.95,12.28,5.86.05,11.46-6.06,11.42-11.54-.04-5.53-4.94-12.03-11.72-11.74Z"/><path class="cls-1" d="m67.41,98.67c-.13-7.18,2.33-13.46,6.79-18.99,5.1-6.33,11.63-10.52,19.72-12.09,7.84-1.52,15.41-.68,22.63,2.9,10.42,5.16,16.39,13.54,18.08,24.78,2,13.25-2.87,23.96-13.66,31.8-6.4,4.65-13.87,6.66-21.95,6.1-6.34-.44-12.22-2.25-17.38-5.85-7.32-5.11-12.2-11.91-13.5-20.86-.37-2.58-.49-5.19-.73-7.79Z"/></g></svg>