<?xml version="1.0" encoding="UTF-8"?><svg id="Layer_2" xmlns="http://www.w3.org/2000/svg" viewBox="0 0 2307.48 514.69"><g id="Layer_1-2"><path d="m2129.82,504.96h-103.25c-1.82-6.79.17-13.8-1.29-20.68-10.87,5.46-21.39,10.98-32.11,16.09-10.86,5.17-22.44,8.28-34.16,10.83-11.77,2.57-23.73,3.38-35.75,3.42-12.02.04-23.99-.54-35.81-2.86-11.44-2.25-22.61-5.49-33.47-9.76-11.18-4.39-21.8-9.87-31.89-16.39-10.1-6.52-19.51-13.91-28.17-22.26-8.66-8.36-16.44-17.44-23.38-27.26-48.15-68.07-43.72-163.12,12.62-227.47,53.88-61.55,154.66-87.66,241.95-31.57,1.17-2.11.6-4.36.68-6.45.09-2.33,0-4.66.02-6.99.02-2.27.07-4.53.1-6.63,8.63-1.28,92.9-1.46,103.13-.33.22.25.48.48.64.76.16.27.3.59.3.89.05,113.59.08,227.18.1,340.77,0,1.65-.15,3.29-.28,5.88Zm-294.34-173.64c.55,4.73.74,10.42,1.92,15.91,5.85,27.34,21.4,47.72,45.88,60.86,29.92,16.06,60.89,16.57,91.07,1.64,30.07-14.87,48.32-39.28,50.36-73.61,1.7-28.63-8.68-52.75-30.33-71.68-30.28-26.49-75.54-31.67-111.82-11.2-29.8,16.81-45.64,42.69-47.08,78.09Z"/><path d="m921.92,177.69v-19.69c.88-.99,1.07-1.28,1.33-1.47.24-.18.57-.37.85-.37,33.62-.02,67.25-.02,100.9-.02,2.25,2.7,1.28,5.82,1.29,8.67.07,50.29.05,100.58.05,150.87,0,59.62,0,119.23,0,178.85,0,3.28-.14,6.56-.22,10.2-2.09.22-3.68.52-5.28.55-43.12.81-88.56.43-98.28-.87-1.22-6.36.08-13.02-.75-19.46-2.94-1.43-4.45.98-6.2,2.08-20.86,13.06-43.41,21.66-67.72,25.33-29.73,4.48-58.96,2.73-87.73-6.93-36.15-12.14-65.74-33.23-88.83-63.36-15.97-20.83-26.52-44.14-32.68-69.84-6.19-25.81-6.22-51.5-1.54-77.17,5.39-29.59,17.98-56.23,36.94-79.71,26.18-32.42,59.47-54.16,99.96-63.83,49.5-11.82,96.48-4.77,140.27,21.65,2.25,1.36,4.53,2.68,7.65,4.52Zm-95.17,242.54c13.6.15,26.56-2.86,38.86-8.12,25.53-10.92,43.65-29.44,51.86-56.02,11.02-35.71-.64-70.41-28.77-93.22-23.88-19.36-51.38-25.86-81.51-20.01-25.3,4.91-45.44,18.15-60.28,39.3-10.05,14.33-15.01,30.64-15.33,47.74-.31,16.81,4.72,32.8,14.16,46.99,19.24,28.89,47.03,41.97,81.01,43.34Z"/><path d="m1445.16,504.95h-103.62c-.63-.55-.93-.73-1.1-.98-.17-.27-.31-.62-.31-.94-.08-113.56-.14-227.12-.19-340.68,0-1.64.18-3.28.35-4.92.03-.27.42-.49.65-.74,7.94-.89,89.65-1.14,102.19-.28.25,1.78.72,3.66.73,5.54.08,9.98.04,19.95.04,30.1,3.92-.53,5.05-3.7,6.93-5.78,13.92-15.44,30.75-26.39,50.53-32.67,22.87-7.26,46.27-8.89,70.09-6.35,15.67,1.67,30.86,5.12,45.36,11.25,32.57,13.76,57.27,35.9,72.12,68.37,7.29,15.95,10.56,32.83,11.38,50.24.17,3.66.11,7.33.11,10.99,0,68.94,0,137.88,0,206.82v9.28c-.94.75-1.18.99-1.46,1.16-.27.16-.58.37-.87.37-32.65.04-65.31.07-97.96.06-.95,0-1.89-.31-3.33-.57-1.28-3.46-.64-7.13-.64-10.67-.05-57.28-.06-114.57-.03-171.85,0-10.37-.99-20.59-3.67-30.63-6.81-25.5-22.81-41.5-48.8-47.11-18.74-4.05-37.1-2.71-54.8,4.74-20.64,8.69-33.97,23.92-39.86,45.6-2.18,8.01-3.62,15.99-3.59,24.44.23,58.61.1,117.23.07,175.85,0,2.92-.19,5.84-.32,9.35Z"/><path d="m292.47,1c8.3-1.12,100.69-1.37,112.23-.4,2.71,11.16.25,42.16-6.62,78.91-4.84,25.89-12.54,50.98-22.54,75.33-10.14,24.68-22.69,48.11-37.56,70.28-14.69,21.89-31.41,42.14-50.44,61.14,1.42,3.58,3.89,6.28,5.99,9.14,29.53,40.26,59.11,80.48,88.68,120.72,19.71,26.82,39.44,53.64,59.14,80.48,1.71,2.33,3.25,4.77,4.85,7.13-.99.73-1.48,1.4-1.97,1.4-46.29.05-92.59.04-139.56.04-19.48-25.84-38.47-52.3-57.84-78.48-19.61-26.49-39.08-53.07-58.54-79.68-19.22-26.28-38.63-52.43-57.99-79.15,8.75-6.61,16.96-12.8,25.15-19.02,10.07-7.65,20.39-15.01,30.14-23.07,46.17-38.18,78.04-85.91,94.92-143.48,6.96-23.73,10.83-47.98,11.58-72.71.09-2.91.26-5.81.39-8.59Z"/><path d="m.78.92C10.37-.31,107.01-.23,115.36,1.05c.19.83.6,1.76.6,2.68.03,166.79.03,333.57.03,500.01-.75.54-1.01.74-1.29.92-.27.17-.57.45-.85.45-36.31.07-72.61.13-108.92.16-1.29,0-2.57-.19-3.37-.26-.69-.63-.99-.81-1.15-1.06-.17-.27-.31-.62-.31-.94C.04,336.22,0,169.42,0,2.62c0-.57.51-1.13.78-1.7Z"/><path d="m482.17,504.28c-.21-.82-.67-1.76-.67-2.7-.03-166.76-.03-333.52-.03-499.9.73-.6.98-.83,1.25-1.02.26-.18.55-.44.83-.45,2.33-.07,4.66-.13,6.99-.13,32.93,0,65.86,0,99.36,0,.28,1.96.61,3.49.68,5.02.11,2.33.03,4.66.03,6.99,0,160.48,0,320.96-.04,481.45,0,3.6.74,7.3-.64,10.74-.72.36-1.31.91-1.9.91-34.64.04-69.29.04-103.93,0-.59,0-1.19-.53-1.95-.9Z"/><path d="m1188.14,156.04v43.87c2.25-1.9,3.76-2.94,4.99-4.25,15.37-16.49,34.23-27.13,55.68-33.6,12.19-3.67,24.52-6.02,37.28-5.99.99,0,1.98.07,2.96.2.28.04.52.39.78.6,1.13,7.73,1.49,85.92.4,100.13-2.02.32-4.17.82-6.36.99-23.85,1.88-45.39,9.89-64.22,24.64-14.58,11.41-25.08,25.78-28.75,44.23-1.35,6.79-1.69,13.88-1.71,20.83-.14,48.93-.07,97.87-.08,146.81v9.7c-8.12,1.36-92.53,1.67-106.21.48-2.12-2.15-1.15-4.96-1.16-7.47-.07-34.95-.05-69.91-.05-104.86,0-74.9,0-149.8,0-224.7,0-3.59.06-7.18.08-10.36,1.25-.66,1.8-1.21,2.36-1.21,34.28-.04,68.56-.04,104.01-.04Z"/><path d="m2242.14,381.62c32.56-.88,65.17,26.04,65.33,65.33.15,37.1-30.24,65.85-66.13,65.74-37.31-.11-65.88-31.85-65.42-66.48.44-33.12,28.58-65.54,66.21-64.59Z"/><path d="m2200.82,196.39c-13.28.7-24.76-11.11-25.18-24.32-.44-13.91,11.32-25.55,25.06-25.5,11.38.05,24.23,8.72,24.78,24.95.46,13.36-11.11,24.73-24.66,24.87Zm19.38-25.11c-.11-11.42-9.06-20.21-20.31-19.84-12.94.43-19.17,11.34-19.41,20.02-.29,10.84,9.35,20.65,19.98,20.56,10.82-.09,19.84-9.58,19.74-20.74Z"/><path d="m2206.55,158.5c5.58,6.4,5.63,7.56.82,15.61.36,1.26.75,2.85,1.27,4.39.51,1.51,1.14,2.97,1.96,5.07-1.69.25-2.83.43-4.2.63-1.63-3.24-3.1-6.15-4.71-9.34-1.3-.07-2.55-.13-4.29-.22-.44,3.1-.84,5.93-1.26,8.96-1,.15-1.88.28-3.21.49-1.4-8.39-.42-16.58-.73-25.13,4.92-1.73,9.46-.88,14.35-.47Zm-.64,4.6c-2.28-.33-4.43-.8-6.59-.88-.79-.03-1.62.84-2.57,1.39.09,1.95.17,3.81.26,5.63,3.42,1.21,6.14,1.42,8.91-1.12v-5.02Z"/></g></svg>