<?xml version="1.0" encoding="UTF-8"?><svg id="Layer_2" xmlns="http://www.w3.org/2000/svg" viewBox="0 0 862.2 1210.11"><defs><style>.cls-1{fill:#131413;}</style></defs><g id="Layer_1-2"><path class="cls-1" d="m371.98,6.44c.98-.5,1.91-1.22,2.96-1.47C394.88.16,415.24,0,435.55,0c6.63,0,13.26,2.04,19.88,3.22.1.02.05.93.07,1.42-23.98.52-51.54,1.11-83.52,1.8Z"/><path class="cls-1" d="m862.2,923.82c-.45-.16-1.3-.31-1.3-.47-.07-5.94-.07-11.88,0-17.82,0-.16.85-.3,1.3-.45v18.73Z"/><path class="cls-1" d="m439.87,627.72c15.15.81,34.1,1.12,52.89,3.03,16.47,1.68,32.79,5.05,49.13,7.89,38.29,6.65,75.19,18.28,110.64,33.98,43.19,19.12,84.32,42.06,120.46,73.04,31.36,26.88,55.47,59.04,69.28,98.39,6.37,18.15,9.99,36.85,9.24,56.23-.3,7.59-.82,15.19-.71,22.77.08,5.26.99,10.52,1.69,15.76,1.39,10.39-.11,20.53-2.35,30.64-4.72,21.31-12.34,41.51-23.95,59.99-11.35,18.07-24.73,34.51-40.24,49.26-24.53,23.33-51.55,43.32-80.49,60.65-25.28,15.13-51.92,27.41-79.73,37.27-18.18,6.45-36.48,12.47-55.22,16.88-16.52,3.89-33.26,7.1-50.06,9.53-17.35,2.52-34.86,4.21-52.36,5.4-20.61,1.4-41.27,2.57-61.96.76-10.49-.92-21.06-.94-31.55-1.91-13.16-1.21-26.27-3.04-39.41-4.5-29.36-3.25-57.71-11.16-85.84-19.6-17.62-5.29-34.6-12.75-51.76-19.52-19.49-7.69-37.7-17.93-55.69-28.64-17.7-10.54-34.79-21.97-50.26-35.53-19.47-17.07-37.39-35.67-51.06-58.02-10.82-17.68-20.57-35.9-27.92-55.31-6.35-16.78-10.26-34.15-11.87-52.09-4.2-46.68,8.31-88.9,32.77-128.21,17.48-28.1,40.13-51.33,65.77-71.83,27.66-22.11,57.27-41.07,89.56-55.66,29.42-13.29,59.61-24.5,91.1-31.66,17.87-4.06,35.93-7.49,54.05-10.23,19.88-3,39.89-5.33,59.91-7.11,13.97-1.24,28.07-1.06,45.9-1.64Zm-28.36,479.82c18.02-.5,33.84-.58,49.62-1.45,24.27-1.32,48.46-3.52,72.45-7.81,27.67-4.95,54.8-11.81,80.96-22.18,29.18-11.56,57.14-25.47,82.4-44.41,14.84-11.12,27.94-23.89,38.18-39.5,21.53-32.82,28.72-68.09,17.24-106.14-9.96-33.01-28.51-60.31-56.73-80.38-18.83-13.39-38.61-25.09-60.04-34.11-21.16-8.9-42.62-16.81-64.59-23.23-13.94-4.07-28.28-6.87-42.53-9.79-23.47-4.81-47.31-6.87-71.19-7.66-25.52-.84-51.05-.92-76.55,1.4-15.86,1.45-31.73,2.62-47.38,5.79-20.21,4.09-40.44,7.94-60.26,13.87-43.45,13-83.71,32.37-119.61,60.28-29.55,22.98-48.68,52.35-51.53,90.66-1.29,17.34-.86,34.62,4.22,51.59,10.09,33.71,29.49,60.57,57.87,80.98,17.62,12.67,37.23,21.78,56.75,30.96,28.13,13.23,57.47,22.95,87.71,30.25,18.69,4.51,37.47,8.16,56.6,9.41,16.17,1.05,32.41,1.07,46.41,1.48Z"/><path class="cls-1" d="m421.82,591.74c-15.5-.88-31.04-1.37-46.49-2.79-8.68-.8-17.36-2.6-25.79-4.89-13.25-3.6-26.59-7.19-39.34-12.2-23.68-9.3-45.74-21.64-65.97-37.4-39.66-30.88-68.29-70.06-88.53-115.83-11.66-26.36-19.64-53.85-24.66-82.18-4-22.58-6.87-45.36-6.7-68.34.14-19.1,4.38-37.57,10.18-55.73,10.06-31.51,26.2-59.69,46.68-85.31,19.96-24.97,43.07-46.79,68.91-65.66,18.36-13.42,37.42-25.73,57.93-35.51,17.05-8.13,34.94-14.08,53.25-18.86,13-3.39,25.88-2.79,38.95-1.41,3.97.42,8.05-.25,12.08-.28,1.98-.01,3.99.62,5.94.44,8.55-.77,17.08-1.82,25.64-2.57,1.94-.17,3.99.88,5.91.66,16.22-1.88,31.16,3.38,46.23,8.06,33.58,10.44,63.12,28.44,90.65,49.85,31.83,24.75,59.48,53.63,81.81,87.39,15.89,24.03,28.47,49.7,36.77,77.4,3.52,11.73,6.07,23.69,6.41,35.91.44,15.45.8,30.96-.14,46.36-1.47,24.04-7.21,47.31-14.71,70.17-10.49,31.96-24.78,62.13-43.95,89.66-25.69,36.9-57.31,67.93-96.59,90.1-25.23,14.24-52.22,24.15-81.08,28.9-17.75,2.92-35.52,2.73-53.36,4.03Zm2.26-93.78c.01.31.03.63.04.94,10.32-1.07,20.75-1.52,30.93-3.35,18.17-3.28,35.19-10.24,51.39-18.96,37.86-20.38,68.46-48.39,89.28-86.6,13.9-25.5,20.95-52.74,20.94-81.72,0-17.24-2.07-34.33-4.95-51.37-4.88-28.84-15.76-55.04-32.9-78.63-21.84-30.06-51.59-48.77-86.39-59.94-14.77-4.74-29.8-8.69-45.29-10.24-11.82-1.18-23.7-1.98-35.57-2.58-21.05-1.07-41.76,1-62.06,7.01-19.84,5.87-38.2,14.56-54.8,27.08-16.73,12.62-30.45,28.02-42.19,45.24-7.63,11.19-13.99,23.19-18.87,35.83-8.7,22.55-12.84,46.07-13.98,70.2-1.1,23.25.93,46.2,8.21,68.26,18.05,54.72,53.86,94.09,105.29,119.01,28.58,13.85,59.01,20.59,90.92,19.81Z"/></g></svg>